<svg width="493" height="308" viewBox="0 0 493 308" fill="none" xmlns="http://www.w3.org/2000/svg">
<g clip-path="url(#clip0_26_4)">
<path opacity="0.1" d="M493 212.916C493.035 200.48 490.078 188.217 484.377 177.164C478.677 166.11 470.402 156.588 460.248 149.403C460.529 146.717 460.673 144.018 460.679 141.316C460.679 98.604 426.531 63.9782 384.402 63.9782C371.43 63.9643 358.675 67.3099 347.38 73.6891C317.563 54.0777 278.636 42.2084 236.05 42.2084C166.758 42.2084 107.154 73.6374 80.7116 118.702C79.2421 118.616 77.7639 118.569 76.2729 118.569C34.1524 118.569 -0.0042417 153.194 -0.0042417 195.907C-0.0341548 210.997 4.32752 225.77 12.5492 238.425C12.5492 276.855 48.8303 308.004 93.5666 308.004H418.119C453.258 308.004 481.744 283.546 481.744 253.371C489.135 241.173 493.029 227.178 493 212.916Z" fill="black"/>
<path d="M357.072 70.712C353.822 72.0821 350.564 73.4564 347.539 75.2659C346.164 76.0845 344.846 76.9892 343.432 77.7346C341.911 78.5445 340.295 79.1563 338.692 79.8112C334.268 81.6176 329.971 83.722 325.832 86.1099C326.19 81.4785 325.513 76.4464 322.743 72.836C322.335 72.301 321.883 71.8022 321.389 71.3454C319.429 69.5273 316.649 69.0577 314.723 67.4679C315.895 65.4085 318.498 63.5387 320.269 61.9662C322.182 60.2745 324.168 58.6704 326.225 57.1538C330.336 54.1184 334.714 51.4609 339.304 49.2137C342.217 47.7876 345.259 46.5123 348.474 46.0772C348.879 45.986 349.303 46.0237 349.685 46.1849C350.185 46.4606 350.366 47.081 350.487 47.6368C351.086 50.4157 351.392 53.2678 351.892 56.0681C352.137 57.5073 352.469 58.9303 352.887 60.329C353.424 61.9833 354.044 63.6096 354.744 65.2017C355.523 67.0371 356.299 68.8738 357.072 70.712Z" fill="#FBBEBE"/>
<path d="M264.845 149.244C264.844 154.963 263.036 160.535 259.679 165.166C256.322 169.797 251.588 173.249 246.152 175.031C240.716 176.812 234.856 176.831 229.408 175.085C223.961 173.34 219.204 169.918 215.817 165.309C212.39 160.654 210.543 155.024 210.546 149.244C210.546 142.045 213.407 135.141 218.498 130.051C223.59 124.961 230.495 122.101 237.696 122.101C244.896 122.101 251.802 124.961 256.893 130.051C261.985 135.141 264.845 142.045 264.845 149.244Z" fill="#BE6F72"/>
<path d="M227.969 173.163C229.422 175.666 230.887 178.191 231.818 180.918C232.749 183.645 233.111 186.665 232.344 189.453C241.592 184.585 252.598 184.977 262.777 182.512C263.049 182.481 263.3 182.349 263.479 182.142C263.541 182 263.573 181.848 263.573 181.694C263.573 181.539 263.541 181.387 263.479 181.246C261.348 173.362 260.529 165.182 261.053 157.033L255.74 160.174C253.414 161.61 251.003 162.905 248.521 164.051C245.009 165.589 241.281 166.52 237.614 167.597C234.709 168.459 228.943 169.574 227.116 172.112C227.446 172.423 227.733 172.777 227.969 173.163Z" fill="#BE6F72"/>
<path d="M213.011 136.663C211.244 137.374 209.167 138.193 207.543 137.198C206.349 136.461 205.858 134.932 205.931 133.531C206.004 132.131 206.539 130.804 206.961 129.469C207.823 126.724 208.288 123.868 209.249 121.136C210.21 118.405 211.779 115.773 214.27 114.329C218.855 111.675 224.789 113.868 229.878 112.399C232.033 111.783 233.908 110.542 235.912 109.569C237.916 108.595 240.169 107.845 242.333 108.367C244.867 108.957 246.737 111.089 249.099 112.175C251.684 113.364 254.778 113.282 257.131 114.872C258.799 116.001 259.851 117.823 260.786 119.611C263.778 125.357 266.14 131.41 267.832 137.663C268.508 139.902 268.895 142.219 268.982 144.556C269.004 147.546 268.194 150.476 267.392 153.362L266.099 157.929C265.621 159.653 265.13 161.376 264.225 162.935C263.32 164.495 261.923 165.809 260.195 166.261C258.041 166.817 255.533 165.74 254.593 163.724C254.016 162.474 254.042 161.044 254.011 159.67C253.964 156.978 253.675 154.296 253.149 151.656C252.882 150.334 252.525 148.959 251.624 147.96C250.46 146.667 248.607 146.237 246.884 146.206C244.867 146.18 242.656 146.728 241.479 148.36C240.536 149.679 240.372 151.531 239.118 152.561C238.56 152.989 237.898 153.258 237.2 153.341C235.778 153.518 234.337 153.213 233.108 152.475C231.879 151.737 230.933 150.608 230.421 149.27C230.025 148.132 229.831 146.719 228.754 146.185C228.193 145.905 227.526 145.956 226.927 145.776C225.091 145.22 224.608 142.893 224.44 140.985C224.246 138.749 224.992 134.333 222.212 134.182C219.217 134.018 215.765 135.746 213.011 136.663Z" fill="#3F3D56"/>
<path d="M219.523 166.085C218.566 166.546 217.519 167.084 217.144 168.075C216.998 168.463 216.972 168.889 216.838 169.286C216.231 171.039 213.861 171.384 212.637 172.78C212.085 173.485 211.713 174.315 211.555 175.197C210.737 178.674 211.002 182.318 212.313 185.64C212.693 186.693 213.279 187.66 214.037 188.484C216.226 190.715 220.002 190.672 222.729 189.151C225.457 187.631 227.34 184.964 228.939 182.258C229.787 180.896 230.496 179.453 231.055 177.95C231.547 176.421 231.897 174.851 232.102 173.258C233.059 167.05 234.309 160.165 233.878 153.871C232.585 153.789 230.116 153.698 228.974 154.508C227.543 155.525 227.939 157.576 227.422 159.062C226.198 162.638 222.648 164.525 219.523 166.085Z" fill="#3F3D56"/>
<path d="M220.644 166.908C219.028 167.007 216.132 165.219 214.511 165.309C213.409 163.385 212.434 161.39 211.594 159.338C212.456 158.101 213.843 157.8 215.942 159.338C217.627 160.523 219.954 164.62 220.644 166.908Z" fill="#3F3D56"/>
<path d="M245.004 98.8366C243.251 99.7629 242.165 99.806 241.298 99.6207C240.432 99.4355 238.713 100.297 238.713 100.297C223.522 105.493 222.923 107.944 222.923 107.944L240.51 101.736C243.893 100.254 243.957 100.775 243.957 100.775C246.543 103.205 249.835 101.559 249.835 101.559C249.835 101.559 254.39 99.4053 253.05 97.333C251.71 95.2607 246.763 97.9276 245.004 98.8366ZM252.33 98.4489C252.33 98.4489 251.038 101.895 246.388 101.335C246.388 101.335 244.104 100.999 245.069 99.2976C245.069 99.2976 249.809 97.3072 251.064 97.4493C252.318 97.5915 252.318 98.4661 252.318 98.4661L252.33 98.4489Z" fill="#E8E8F0"/>
<path opacity="0.1" d="M245.004 98.8366C243.251 99.7629 242.165 99.806 241.298 99.6207C240.432 99.4355 238.713 100.297 238.713 100.297C223.522 105.493 222.923 107.944 222.923 107.944L240.51 101.736C243.893 100.254 243.957 100.775 243.957 100.775C246.543 103.205 249.835 101.559 249.835 101.559C249.835 101.559 254.39 99.4053 253.05 97.333C251.71 95.2607 246.763 97.9276 245.004 98.8366ZM252.33 98.4489C252.33 98.4489 251.038 101.895 246.388 101.335C246.388 101.335 244.104 100.999 245.069 99.2976C245.069 99.2976 249.809 97.3072 251.064 97.4493C252.318 97.5915 252.318 98.4661 252.318 98.4661L252.33 98.4489Z" fill="black"/>
<path d="M245.97 89.2292C243.341 89.3153 242.794 91.2799 242.794 91.2799C242.268 91.9078 241.959 92.6893 241.915 93.5073C241.871 94.3253 242.093 95.1355 242.548 95.8165L237.881 100.457C236.997 100.798 236.237 101.398 235.701 102.18C235.701 102.18 225.453 111.227 225.604 112.05C225.604 112.05 227.276 112.912 237.881 103.248L240.665 100.784C240.665 100.784 241.281 96.1784 245.63 95.3038C245.63 95.3038 246.061 95.4934 246.289 94.468C246.533 93.9763 246.858 93.5292 247.25 93.1454C247.827 92.6112 248.599 89.1387 245.97 89.2292ZM246.707 92.344C246.707 92.344 245.298 95.9802 243.29 94.929C241.281 93.8778 243.234 91.4522 243.234 91.4522C246.716 88.0659 246.707 92.344 246.707 92.344Z" fill="#E8E8F0"/>
<path opacity="0.1" d="M237.971 102.266C238.278 102.266 238.527 102.017 238.527 101.71C238.527 101.403 238.278 101.154 237.971 101.154C237.664 101.154 237.416 101.403 237.416 101.71C237.416 102.017 237.664 102.266 237.971 102.266Z" fill="black"/>
<path d="M286.604 84.1367C284.982 83.2824 283.298 82.5508 281.566 81.9481C279.264 81.2955 276.899 80.8911 274.512 80.7418C266.967 80.0237 259.4 79.6072 251.809 79.4923C250.469 79.4923 249.099 79.4622 247.827 79.9232C246.692 80.3588 245.663 81.0332 244.811 81.9007C243.334 83.312 242.161 85.0096 241.363 86.8897C241.107 87.3608 241.031 87.9088 241.148 88.4321C241.32 88.9318 242.01 89.2636 242.402 88.9103C241.399 89.7186 240.662 90.8097 240.287 92.042C239.912 93.2743 239.916 94.5909 240.299 95.8208C239.701 96.1335 239.193 96.5952 238.826 97.1612C238.458 97.7272 238.243 98.3785 238.2 99.052C241.333 99.6319 244.558 99.4756 247.621 98.5953C246.707 98.3627 245.763 99.22 245.707 100.159C245.713 100.631 245.85 101.092 246.101 101.491C246.353 101.89 246.71 102.212 247.134 102.421C247.988 102.825 248.93 103.012 249.874 102.964C253.525 102.964 257.076 101.727 260.717 101.568C263.501 101.443 266.371 101.947 269.03 101.137C272.116 100.181 274.869 97.4709 278.05 98.0353C280.588 98.4876 282.243 100.844 283.898 102.817C286.544 105.967 289.814 108.517 293.059 111.046C295.559 112.994 298.17 114.993 301.269 115.652C302.196 115.905 303.18 115.858 304.079 115.518C304.83 115.116 305.461 114.522 305.906 113.795C309.246 109.056 309.25 103.089 309.056 97.5355C308.957 94.6963 308.336 94.3129 305.708 93.1367C302.657 91.7667 299.617 90.3636 296.589 88.9275C293.245 87.365 289.916 85.7681 286.604 84.1367Z" fill="#FBBEBE"/>
<path d="M321.532 94.7696C321.018 95.0765 320.475 95.3319 319.911 95.5321C318.967 95.7562 318.006 95.3555 317.088 95.0453C313.21 93.7528 308.901 94.0587 305.151 92.4603C306.381 99.5155 304.771 106.771 300.674 112.645C299.898 113.748 298.877 114.876 297.532 114.963C298.131 116.802 299.976 117.914 301.725 118.741C304.519 120.063 307.442 121.094 310.448 121.817C311.31 122.02 312.361 122.119 312.861 121.386C313.163 120.955 313.292 120.219 313.822 120.245C314.632 121.106 314.365 122.873 315.485 123.26C315.835 123.349 316.201 123.349 316.55 123.26L319.049 122.829C319.799 122.765 320.521 122.516 321.152 122.106C321.547 121.763 321.874 121.347 322.113 120.882C324.914 116.113 325.992 110.594 326.423 105.144C326.634 102.438 326.897 99.569 326.711 96.8548C326.539 94.5283 323.557 93.8261 321.532 94.7696Z" fill="#E8E8F0"/>
<path opacity="0.1" d="M321.532 94.7696C321.018 95.0765 320.475 95.3319 319.911 95.5321C318.967 95.7562 318.006 95.3555 317.088 95.0453C313.21 93.7528 308.901 94.0587 305.151 92.4603C306.381 99.5155 304.771 106.771 300.674 112.645C299.898 113.748 298.877 114.876 297.532 114.963C298.131 116.802 299.976 117.914 301.725 118.741C304.519 120.063 307.442 121.094 310.448 121.817C311.31 122.02 312.361 122.119 312.861 121.386C313.163 120.955 313.292 120.219 313.822 120.245C314.632 121.106 314.365 122.873 315.485 123.26C315.835 123.349 316.201 123.349 316.55 123.26L319.049 122.829C319.799 122.765 320.521 122.516 321.152 122.106C321.547 121.763 321.874 121.347 322.113 120.882C324.914 116.113 325.992 110.594 326.423 105.144C326.634 102.438 326.897 99.569 326.711 96.8548C326.539 94.5283 323.557 93.8261 321.532 94.7696Z" fill="black"/>
<path d="M177.066 234.518C175.838 232.941 174.576 231.269 172.757 230.438C171.709 230.015 170.606 229.745 169.482 229.636C163.418 228.775 157.342 227.879 151.223 227.711C149.223 227.655 147.077 227.711 145.448 228.878C143.582 230.209 142.862 232.661 142.759 234.948C142.648 237.673 143.189 240.384 144.337 242.857C145.485 245.33 147.208 247.493 149.361 249.166C153.024 251.958 157.652 253.125 162.169 254.047C164.543 254.534 166.931 254.969 169.327 255.34C171.723 255.71 174.162 256.003 176.476 256.744C181.423 258.33 185.789 261.914 190.977 262.211C191.221 262.249 191.471 262.207 191.688 262.091C191.916 261.907 192.069 261.647 192.119 261.358C193.261 257.33 197.222 247.684 192.119 244.866C189.452 243.397 186.491 243.332 183.88 241.467C181.268 239.601 179.049 237.064 177.066 234.518Z" fill="#BE6F72"/>
<path d="M133.502 261.259C130.145 258.338 125.513 256.792 123.073 253.074C122 251.436 121.457 249.515 120.919 247.628L119.333 241.932C119.211 241.582 119.155 241.213 119.169 240.842C119.29 239.653 120.69 239.089 121.871 238.904C127.904 237.964 134.187 240.394 138.704 244.504C143.22 248.614 146.12 254.284 147.823 260.161C147.942 260.46 147.96 260.79 147.874 261.1C147.727 261.376 147.494 261.596 147.211 261.729C145.03 263.021 142.1 264.904 139.553 265.301C137.006 265.697 135.317 262.819 133.502 261.259Z" fill="#BE6F72"/>
<path d="M280.79 236.702L298.459 243.772C300.135 244.442 301.515 245.692 302.347 247.295C303.178 248.897 303.406 250.744 302.988 252.5L289.84 307.789H256.968L262.691 244.888C262.691 244.888 275.188 234.548 280.79 236.702Z" fill="#3F3D56"/>
<path d="M297.856 230.067C297.528 230.782 297.046 231.489 297.119 232.269C297.162 232.734 297.403 233.174 297.369 233.634C297.3 234.539 296.253 235.043 295.348 235.052C294.443 235.061 293.533 234.768 292.641 234.923C291.176 235.173 290.185 236.521 288.918 237.301C287.151 238.387 284.945 238.322 282.885 238.507C278.575 238.895 274.499 240.511 270.599 242.35C267.948 243.6 265.134 245.202 264.134 247.951C262.699 251.828 265.483 255.913 266.099 260.014C266.265 261.395 266.305 262.788 266.22 264.176C265.768 278.66 264.988 293.313 264.16 307.78L106.193 307.965L113.972 294.338C121.557 281.047 129.344 267.506 140.785 257.343C142.482 255.811 144.389 254.529 146.448 253.535L155.623 261.72C156.357 262.451 157.209 263.052 158.144 263.5C159.867 264.202 161.798 263.801 163.647 263.861C167.202 263.978 170.451 265.792 173.537 267.562C175.8 268.79 177.977 270.171 180.053 271.694C181.268 272.625 183.022 273.206 184.289 274.064L183.992 258.597C183.962 257.201 183.94 255.771 184.358 254.439C185.168 251.854 187.482 250.028 188.594 247.568C189.098 246.46 189.344 245.254 189.766 244.121C190.363 242.664 191.105 241.271 191.981 239.963L197.7 230.778C199.114 228.512 200.523 226.246 202.057 224.061C208.767 214.493 217.799 206.828 226.586 199.138C226.382 196.946 226.888 194.747 228.03 192.865C228.48 192.238 228.853 191.56 229.142 190.845C229.328 189.996 229.382 189.124 229.301 188.26C229.301 188.04 229.301 187.829 229.301 187.596C229.397 186.187 229.986 184.857 230.965 183.839C231.973 182.792 233.322 182.155 234.649 181.56C241.518 178.489 248.66 176.069 255.981 174.331C257.149 174.055 258.386 173.797 259.536 174.146C259.885 175.27 261.075 175.666 262.264 175.951L263.027 176.127C265.047 176.563 266.931 177.483 268.517 178.807C270.185 180.263 271.331 182.211 272.447 184.128C280.838 198.53 284.703 217.427 297.683 227.892C298.313 228.387 298.183 229.378 297.856 230.067Z" fill="black"/>
<path opacity="0.1" d="M350.789 53.1687C346.246 63.151 337.296 72.9869 325.608 72.9869C324.654 72.9874 323.701 72.94 322.751 72.8447C322.344 72.3097 321.891 71.8109 321.398 71.354C319.437 69.5359 316.658 69.0663 314.731 67.4766C315.904 65.4172 318.507 63.5474 320.278 61.9749C322.191 60.2831 324.176 58.679 326.233 57.1625C330.345 54.1271 334.722 51.4696 339.312 49.2223C342.226 47.7963 345.268 46.521 348.483 46.0859C348.888 45.9947 349.311 46.0323 349.694 46.1936C350.194 46.4693 350.375 47.0897 350.495 47.6455C351.095 50.4028 350.289 50.3683 350.789 53.1687Z" fill="black"/>
<path d="M325.609 72.1208C341.555 72.1208 354.482 59.1972 354.482 43.2552C354.482 27.3132 341.555 14.3896 325.609 14.3896C309.662 14.3896 296.735 27.3132 296.735 43.2552C296.735 59.1972 309.662 72.1208 325.609 72.1208Z" fill="#FBBEBE"/>
<path d="M385.738 139.257C385.268 142.747 384.448 146.181 383.29 149.506C382.859 150.717 382.329 151.898 381.782 153.061C378.571 159.864 376.809 167.218 375.968 174.697C375.904 175.286 375.796 175.869 375.645 176.442C375.012 178.855 373.676 181.009 372.654 183.279C371.613 185.732 370.749 188.256 370.069 190.832C369.823 191.478 369.74 192.175 369.827 192.861C369.987 193.589 370.513 194.153 370.883 194.812C372.797 198.108 370.586 202.137 369.84 205.868C369.586 207.16 369.474 208.565 368.634 209.573C367.918 210.434 366.807 210.831 365.751 211.193C350.702 216.307 335.299 220.316 319.666 223.187C317.334 223.618 314.925 224.018 312.611 223.588C310.297 223.157 307.991 221.726 307.198 219.495C306.742 218.202 306.819 216.798 306.858 215.428C306.944 212.55 306.858 209.655 306.703 206.755C306.203 197.212 305.069 187.635 307.565 178.493C308.31 175.796 309.362 173.193 310.206 170.527C311.857 165.327 312.283 159.95 312.697 154.556C313.038 150.11 313.369 145.646 314.365 141.26C315.106 137.99 314.615 134.591 314.572 131.239C314.486 123.569 316.741 116.055 321.036 109.698C321.782 108.599 322.6 107.514 322.992 106.251C323.544 104.442 323.165 102.499 322.915 100.62C322.286 95.831 322.54 90.967 323.665 86.2693C324.018 84.5116 324.692 82.8337 325.651 81.3191C326.724 79.7552 328.263 78.5747 329.801 77.4632C338.733 71.0257 348.588 65.978 359.032 62.4918C359.993 64.9217 360.916 67.7609 361.652 70.2468C361.752 70.5828 361.821 71.0093 361.545 71.2247C361.269 71.4402 360.984 71.3238 360.683 71.3324C360.372 71.3662 360.078 71.4933 359.84 71.6971C359.602 71.9008 359.432 72.1717 359.351 72.4741C359.2 73.0843 359.258 73.7272 359.515 74.3009C360.101 75.8088 361.364 76.9332 362.579 77.9974L368.69 83.3267C369.421 84.011 370.22 84.6201 371.073 85.1448C371.84 85.5757 372.676 85.8816 373.465 86.2779C376.628 87.8763 378.813 90.9912 380.032 94.3172C381.252 97.6432 380.7 101.641 382.29 104.799C387.574 115.268 387.531 127.655 385.738 139.257Z" fill="#E8E8F0"/>
<path d="M381.722 248.8C383.578 256.282 383.532 264.109 381.588 271.569C381.239 272.9 380.83 274.279 381.105 275.627C381.265 276.394 381.64 277.114 381.726 277.894C381.764 278.605 381.687 279.318 381.498 280.005C379.584 289.052 380.269 298.453 381.041 307.685C380.713 307.685 380.61 307.836 380.265 307.836H371.961C371.814 305.411 368.798 303.593 367.324 301.658C365.898 299.762 364.912 297.573 364.437 295.248C363.963 292.924 364.011 290.524 364.579 288.221C365.872 283.051 369.681 278.919 371.633 273.977C373.788 268.54 373.603 262.384 375.891 257.007C377.205 253.901 379.662 251.475 381.722 248.8Z" fill="#3F3D56"/>
<path opacity="0.1" d="M381.722 248.8C383.578 256.282 383.532 264.109 381.588 271.569C381.239 272.9 380.83 274.279 381.105 275.627C381.265 276.394 381.64 277.114 381.726 277.894C381.764 278.605 381.687 279.318 381.498 280.005C379.584 289.052 380.269 298.453 381.041 307.685C380.713 307.685 380.61 307.836 380.265 307.836H371.961C371.814 305.411 368.798 303.593 367.324 301.658C365.898 299.762 364.912 297.573 364.437 295.248C363.963 292.924 364.011 290.524 364.579 288.221C365.872 283.051 369.681 278.919 371.633 273.977C373.788 268.54 373.603 262.384 375.891 257.007C377.205 253.901 379.662 251.475 381.722 248.8Z" fill="black"/>
<path d="M364.294 207.332C357.235 206.204 350.396 209.758 343.579 211.916C333.163 215.212 321.695 215.415 312.072 220.589C311.213 221.003 310.434 221.566 309.771 222.252C308.99 223.219 308.499 224.387 308.353 225.621C307.923 228.35 308.452 231.143 309.849 233.527C310.448 234.544 311.202 235.478 311.667 236.568C312.77 239.153 312.034 242.135 311.844 244.961C311.413 251.273 313.861 257.416 314.352 263.724C314.645 267.442 314.262 271.242 315.136 274.869C315.684 277.144 316.714 279.29 317.14 281.59C317.567 283.891 317.382 286.14 317.524 288.415C317.925 294.933 320.894 301.266 320.17 307.759L376.193 307.944C374.115 300.719 372.387 293.248 374.27 285.972C374.924 283.671 375.736 281.418 376.701 279.229C379.834 271.66 383.053 264.068 384.781 256.064C386.509 248.059 386.664 239.511 383.738 231.86C380.48 223.329 373.555 216.233 372.047 207.229C369.461 206.884 366.884 207.746 364.294 207.332Z" fill="#3F3D56"/>
<path d="M305.501 29.1757C304.958 28.0383 303.419 27.2887 302.385 28.0082C301.351 28.7277 301.484 30.3347 301.23 31.6272C300.739 34.169 298.213 35.901 295.628 36.306C294.417 36.4998 293.068 36.4223 292.128 35.6382C291.523 35.0588 291.078 34.3332 290.836 33.5314C288.25 26.6381 289.823 18.5903 294.055 12.5759C294.953 11.2282 296.067 10.0375 297.352 9.05169C300.915 6.46671 305.682 6.46671 310.09 6.60458C310.985 6.70162 311.891 6.5971 312.741 6.29869C313.388 5.95804 313.981 5.52238 314.499 5.0062C318.675 1.33553 324.445 -0.206835 330.013 0.0387376C335.581 0.28431 340.937 2.19288 345.884 4.73047C348.25 5.9411 350.569 7.31545 352.422 9.22833C356.874 13.808 357.959 20.5936 358.834 26.9182C359.774 33.7425 360.709 40.7564 359.127 47.4644C358.231 51.2644 356.542 54.9781 356.74 58.8771C353.16 59.8991 349.522 60.7033 345.846 61.2855C344.122 61.5569 342.131 61.7163 340.868 60.497C340.334 59.9248 339.944 59.2336 339.731 58.4808C338.364 54.4439 338.821 49.834 336.757 46.103C335.894 44.5818 334.66 43.3032 333.171 42.3858C331.682 41.4684 329.985 40.9421 328.237 40.8555C326.884 40.8081 325.346 41.1399 324.652 42.2988C324.386 42.8673 324.181 43.4622 324.04 44.0738C323.083 46.9561 319.166 48.3821 316.585 46.7751C315.292 45.9652 314.408 44.621 313.24 43.6128C311.758 42.3419 309.858 41.687 308.194 40.6616C302.652 37.2279 307.647 33.6779 305.501 29.1757Z" fill="#3F3D56"/>
<path d="M262.281 175.955C259.924 176.709 257.778 178.075 255.485 179.035C251.447 180.72 247.008 181.112 242.772 182.189C238.702 183.28 234.78 184.86 231.089 186.894C230.818 187.04 229.965 187.755 229.284 188.247C229.284 188.027 229.284 187.816 229.284 187.583C229.379 186.174 229.968 184.844 230.947 183.826C231.956 182.779 233.304 182.142 234.632 181.547C241.507 178.48 248.654 176.063 255.981 174.331C257.149 174.055 258.385 173.797 259.536 174.146C259.902 175.27 261.092 175.666 262.281 175.955Z" fill="#3F3D56"/>
<path opacity="0.1" d="M201.186 286.441C205.823 291.611 209.982 297.255 215.377 301.615C209.15 293.347 200.217 287.829 192.141 281.594C190.503 280.328 187.228 278.531 186.237 276.7C184.672 273.831 188.129 275.869 189.564 276.649C194.045 279.083 197.803 282.676 201.186 286.441Z" fill="black"/>
<path opacity="0.1" d="M368.026 135.53C367.807 137.391 367.113 139.158 366.41 140.89C364.687 145.198 362.838 149.463 360.235 153.285C358.442 155.917 356.309 158.295 354.439 160.867C352.519 163.597 350.758 166.435 349.164 169.368C346.225 174.572 343.361 179.82 340.571 185.11C339.239 187.643 337.916 190.198 336.197 192.486C334.99 194.03 333.695 195.503 332.318 196.898C329.302 200.077 326.203 203.015 323.506 206.462C322.17 208.185 319.942 208.849 317.86 209.435C317.164 209.666 316.439 209.797 315.705 209.823C314.967 209.771 314.241 209.61 313.551 209.344C311.226 208.635 308.951 207.772 306.742 206.759C306.242 197.216 305.109 187.639 307.604 178.497C308.349 175.8 309.401 173.198 310.245 170.531C311.896 165.331 312.323 159.954 312.736 154.56C313.249 153.479 313.796 152.406 314.326 151.363C317.921 144.263 320.95 136.444 320.015 128.529C319.777 127.103 319.611 125.665 319.519 124.221C319.528 122.451 319.827 120.695 320.403 119.021C321.693 115.068 323.825 111.442 326.652 108.392C329.479 105.343 332.934 102.942 336.779 101.357C337.993 100.79 339.317 100.496 340.657 100.495C342.381 100.586 344.031 101.482 345.712 101.154C351.405 103.658 356.012 107.931 359.455 113.11C362.898 118.288 363.088 125.208 366.833 130.171C367.94 131.679 368.242 133.673 368.026 135.53Z" fill="black"/>
<path d="M243.423 112.149L243.242 111.757L236.2 115.006L235.024 115.549L233.852 116.087L243.781 137.607L244.953 137.064L246.129 136.521L253.171 133.273L252.99 132.885L245.948 136.134L245.767 135.741L252.809 132.493L252.628 132.101L245.586 135.349L245.405 134.957L252.447 131.709L252.27 131.317L245.224 134.565L245.043 134.178L252.089 130.929L251.908 130.537L244.862 133.786L244.681 133.393L251.727 130.145L251.546 129.753L244.504 133.001L244.323 132.609L251.365 129.361L251.184 128.973L244.143 132.222L243.961 131.83L251.003 128.581L250.822 128.189L243.781 131.437L243.6 131.045L250.645 127.797L250.464 127.405L243.418 130.653L243.238 130.266L250.283 127.013L250.102 126.625L243.057 129.874L242.88 129.482L249.921 126.233L249.74 125.841L242.699 129.089L242.518 128.697L249.559 125.449L249.378 125.057L242.337 128.305L242.156 127.918L249.197 124.669L249.021 124.277L241.975 127.526L241.794 127.134L248.84 123.885L248.659 123.493L241.613 126.741L241.436 126.349L248.478 123.105L248.297 122.713L241.255 125.962L241.074 125.57L248.116 122.321L247.935 121.929L240.893 125.178L240.712 124.785L247.754 121.537L247.577 121.145L240.531 124.398L240.35 124.006L247.396 120.757L247.215 120.365L240.169 123.614L239.988 123.222L247.034 119.973L246.853 119.581L239.812 122.83L239.631 122.437L246.672 119.189L246.491 118.801L239.45 122.05L239.269 121.658L246.31 118.409L246.129 118.017L239.088 121.266L238.907 120.874L245.952 117.625L245.771 117.237L238.726 120.481L238.545 120.094L245.59 116.845L245.409 116.453L238.364 119.702L238.187 119.31L245.228 116.061L245.047 115.669L238.006 118.918L237.825 118.526L244.866 115.277L244.685 114.889L237.644 118.138L237.463 117.746L244.504 114.497L244.328 114.105L237.282 117.354L237.101 116.962L244.147 113.713L243.966 113.321L236.92 116.57L236.739 116.182L243.785 112.933L243.604 112.541L236.558 115.79L236.381 115.398L243.423 112.149Z" fill="black"/>
<path opacity="0.1" d="M265.531 159.48C264.621 161.018 263.229 162.354 261.501 162.806C259.346 163.362 256.838 162.285 255.899 160.269C255.321 159.019 255.347 157.589 255.317 156.214C255.27 153.523 254.981 150.841 254.455 148.201C254.188 146.878 253.83 145.504 252.93 144.504C251.766 143.212 249.913 142.781 248.189 142.751C246.173 142.725 243.962 143.272 242.785 144.905C241.842 146.223 241.678 148.076 240.424 149.106C239.866 149.533 239.204 149.803 238.506 149.886C237.083 150.063 235.642 149.758 234.414 149.02C233.185 148.282 232.239 147.153 231.727 145.814C231.331 144.677 231.137 143.264 230.06 142.729C229.499 142.449 228.831 142.501 228.232 142.32C226.396 141.764 225.914 139.438 225.746 137.529C225.552 135.293 226.297 130.877 223.518 130.727C220.544 130.563 217.092 132.29 214.339 133.208C212.572 133.919 210.495 134.738 208.87 133.742C207.676 133.006 207.185 131.476 207.258 130.076C207.332 128.676 207.866 127.349 208.288 126.013C209.012 123.756 209.447 121.412 210.111 119.12C209.799 119.768 209.521 120.433 209.279 121.11C208.323 123.829 207.875 126.711 206.995 129.443C206.564 130.778 206.039 132.105 205.965 133.505C205.892 134.906 206.396 136.435 207.577 137.172C209.202 138.167 211.279 137.348 213.046 136.638C215.8 135.72 219.251 133.992 222.225 134.156C225.005 134.307 224.259 138.723 224.453 140.959C224.621 142.867 225.104 145.194 226.939 145.75C227.538 145.931 228.206 145.879 228.767 146.159C229.844 146.693 230.06 148.106 230.434 149.244C230.946 150.582 231.892 151.711 233.121 152.449C234.35 153.187 235.791 153.492 237.213 153.315C237.911 153.232 238.573 152.963 239.131 152.535C240.385 151.505 240.549 149.653 241.492 148.335C242.669 146.693 244.88 146.146 246.896 146.18C248.62 146.206 250.495 146.637 251.637 147.934C252.538 148.933 252.895 150.308 253.162 151.63C253.688 154.27 253.977 156.952 254.024 159.644C254.055 161.018 254.024 162.449 254.606 163.698C255.541 165.714 258.054 166.791 260.208 166.236C261.932 165.783 263.328 164.448 264.238 162.91C264.93 161.654 265.463 160.316 265.824 158.929C265.729 159.127 265.634 159.303 265.531 159.48Z" fill="black"/>
<path d="M287.698 156.619C284.251 153.311 281.135 149.649 278.041 145.995C275.076 142.501 272.102 138.99 269.715 135.082C268.237 132.665 266.918 130.029 264.647 128.336C262.923 127.043 260.816 126.44 258.911 125.453C257.541 124.742 256.278 123.842 254.925 123.105C251.973 121.51 248.651 120.727 245.298 120.835C243.906 120.882 242.324 121.205 241.609 122.403C241.363 122.812 241.247 123.291 240.997 123.696C240.226 124.988 238.368 125.354 237.735 126.711C236.666 128.995 239.889 131.093 240.092 133.605C240.187 134.863 239.493 136.034 239.29 137.28C238.946 139.434 240.062 141.489 241.139 143.367C243.445 147.391 246.25 151.799 250.779 152.811C252.382 153.169 254.076 153.052 255.64 153.561C256.901 154.038 258.068 154.734 259.088 155.616C263.343 158.969 267.094 162.917 270.224 167.339C271.68 169.394 272.999 171.539 274.468 173.581C279.145 180.051 285.283 185.326 292.383 188.979L297.67 172.177C298.485 169.592 299.127 166.046 296.808 164.03C293.904 161.415 290.555 159.351 287.698 156.619Z" fill="#FBBEBE"/>
<path d="M345.259 99.0176C343.579 99.3407 341.911 98.4489 340.204 98.3584C338.864 98.3578 337.54 98.652 336.326 99.2201C332.482 100.807 329.027 103.207 326.2 106.257C323.373 109.306 321.241 112.932 319.95 116.884C319.379 118.565 319.085 120.327 319.08 122.101C319.105 123.545 319.407 124.966 319.575 126.41C320.51 134.311 317.481 142.135 313.891 149.244C311.904 153.169 309.663 157.309 310.133 161.682C310.193 162.268 310.288 162.927 309.931 163.405C309.5 163.974 308.569 164.004 308.168 164.603C307.767 165.202 308.134 166.106 307.815 166.783C307.384 167.739 305.979 167.623 304.975 167.282C302.222 166.351 299.673 164.904 297.463 163.017C293.882 165.107 290.051 167.597 288.875 171.569C288.598 172.583 288.407 173.617 288.301 174.663L286.453 190.086C286.207 192.128 286.086 194.524 287.629 195.885C290.288 198.238 295.024 195.192 297.868 197.32C298.597 197.863 299.071 198.673 299.592 199.409C302.699 203.67 308.047 205.544 313.064 207.164C313.755 207.427 314.481 207.586 315.218 207.638C315.952 207.618 316.678 207.487 317.373 207.251C319.459 206.665 321.682 205.984 323.018 204.282C325.72 200.835 328.819 197.897 331.835 194.718C333.21 193.321 334.505 191.848 335.714 190.306C337.438 188.014 338.756 185.459 340.088 182.926C342.872 177.635 345.733 172.388 348.672 167.183C350.283 164.263 352.06 161.438 353.995 158.722C355.869 156.137 357.998 153.767 359.791 151.139C362.376 147.314 364.234 143.031 365.966 138.744C366.669 137.021 367.362 135.242 367.587 133.385C367.811 131.528 367.509 129.533 366.38 128.038C362.635 123.071 362.45 116.156 359.006 110.977C355.563 105.799 350.956 101.516 345.259 99.0176Z" fill="#E8E8F0"/>
<path d="M243.539 113.916C243.439 113.98 243.354 114.065 243.29 114.165C243.226 114.266 243.184 114.379 243.169 114.497C243.169 114.713 243.346 114.881 243.44 115.075C243.703 115.626 243.281 116.264 242.798 116.643C242.316 117.022 241.73 117.315 241.467 117.871C241.426 117.944 241.408 118.028 241.415 118.112C241.444 118.225 241.511 118.326 241.605 118.396C241.888 118.722 242.257 118.964 242.669 119.094C243.328 119.232 243.962 118.797 244.522 118.439C245.13 118.055 245.777 117.737 246.453 117.492C246.662 117.43 246.859 117.332 247.034 117.203C247.25 116.988 247.383 116.704 247.409 116.402C247.556 115.32 246.978 114.282 246.319 113.386C245.526 112.33 244.216 113.334 243.539 113.916Z" fill="#3F3D56"/>
<path d="M177.424 241.593L132.691 218.767C132.365 218.6 131.965 218.73 131.798 219.056L120.398 241.386C120.232 241.712 120.361 242.112 120.688 242.279L165.42 265.104C165.746 265.271 166.146 265.141 166.313 264.815L177.713 242.485C177.88 242.159 177.75 241.759 177.424 241.593Z" fill="#3F3D56"/>
<path d="M173.305 242.167L134.714 222.475L124.923 241.654L163.514 261.346L173.305 242.167Z" fill="#E8E8F0"/>
<path d="M128.969 231.638C129.087 231.407 128.899 231.075 128.55 230.897C128.2 230.718 127.821 230.761 127.703 230.992C127.585 231.223 127.773 231.555 128.123 231.733C128.472 231.912 128.852 231.869 128.969 231.638Z" fill="#E6E8EC"/>
<path d="M171.171 253.228C171.365 252.849 171.054 252.303 170.478 252.009C169.901 251.714 169.277 251.783 169.083 252.163C168.889 252.542 169.2 253.088 169.776 253.382C170.353 253.677 170.977 253.608 171.171 253.228Z" fill="#E6E8EC"/>
<g opacity="0.1">
<path d="M359.119 44.4314C358.222 48.2313 356.533 51.9451 356.731 55.8441C353.152 56.8661 349.514 57.6703 345.837 58.2524C344.113 58.5239 342.122 58.6833 340.859 57.464C340.325 56.8918 339.935 56.2006 339.722 55.4477C338.356 51.4109 338.812 46.801 336.748 43.07C335.885 41.5488 334.652 40.2701 333.162 39.3528C331.673 38.4354 329.976 37.909 328.228 37.8225C326.875 37.7751 325.337 38.1068 324.643 39.2658C324.377 39.8342 324.172 40.4292 324.031 41.0408C323.074 43.923 319.157 45.3491 316.576 43.7421C315.283 42.9321 314.399 41.5879 313.232 40.5798C311.749 39.3089 309.849 38.654 308.185 37.6286C306.686 36.7066 305.966 35.7761 305.66 34.8153C305.281 36.8876 305.173 38.7919 308.185 40.6444C309.849 41.6698 311.749 42.3247 313.232 43.5956C314.399 44.5951 315.266 45.9479 316.576 46.7579C319.161 48.3563 323.074 46.9389 324.031 44.0566C324.172 43.445 324.377 42.85 324.643 42.2816C325.337 41.1227 326.875 40.7909 328.228 40.8383C329.976 40.9248 331.673 41.4512 333.162 42.3686C334.652 43.2859 335.885 44.5646 336.748 46.0858C338.812 49.8168 338.356 54.4267 339.722 58.4635C339.939 59.2226 340.335 59.9186 340.877 60.4927C342.139 61.6991 344.135 61.5526 345.854 61.2812C349.531 60.6991 353.169 59.8948 356.748 58.8728C356.537 54.9738 358.239 51.2601 359.136 47.4602C359.826 44.3507 360.103 41.1638 359.959 37.9819C359.89 40.154 359.609 42.3142 359.119 44.4314Z" fill="black"/>
<path d="M305.919 30.3821C306.234 28.965 306.083 27.4841 305.488 26.1599C304.945 25.0225 303.406 24.2729 302.372 24.9924C301.338 25.7119 301.484 27.3189 301.23 28.6113C300.739 31.1532 298.213 32.8852 295.628 33.2902C294.417 33.484 293.068 33.4065 292.129 32.6224C291.523 32.043 291.078 31.3174 290.836 30.5156C290.174 28.7238 289.772 26.8464 289.642 24.9407C289.423 27.8566 289.83 30.7855 290.836 33.5314C291.078 34.3332 291.523 35.0588 292.129 35.6382C293.068 36.4223 294.417 36.4998 295.628 36.306C298.183 35.901 300.722 34.1518 301.23 31.6272C301.476 30.3347 301.308 28.7708 302.376 28.0297C303.445 27.2887 304.962 28.0599 305.492 29.1973C305.677 29.5756 305.82 29.9729 305.919 30.3821Z" fill="black"/>
</g>
</g>
<defs>
<clipPath id="clip0_26_4">
<rect width="493" height="308" fill="white"/>
</clipPath>
</defs>
</svg>
